<?xml version="1.0" encoding="UTF-8"?> <svg xmlns="http://www.w3.org/2000/svg" width="170" height="46" viewBox="0 0 170 46" fill="none"> <path d="M68.7551 21.0002H71.2751L63.6431 4.2002H61.2671L53.6591 21.0002H56.1311L57.9791 16.8002H66.9071L68.7551 21.0002ZM58.8191 14.8802L62.4431 6.6482L66.0671 14.8802H58.8191Z" fill="white"></path> <path d="M83.2706 8.2802H71.6546V10.2962H76.3106V21.0002H78.6146V10.2962H83.2706V8.2802Z" fill="white"></path> <path d="M85.9582 8.2802L85.7422 12.9842C85.5742 15.9842 85.4782 19.1042 83.4142 19.1042C83.2462 19.1042 83.0542 19.0802 82.8382 19.0322L82.6942 20.9762C83.2222 21.1202 83.6782 21.1922 84.1102 21.1922C86.9902 21.1922 87.5902 17.6162 87.8062 13.1282L87.9502 10.2962H93.4222V21.0002H95.7262V8.2802H85.9582Z" fill="white"></path> <path d="M104.717 8.1602C102.677 8.1602 100.781 8.7362 99.4612 9.7922L100.421 11.5202C101.405 10.6802 102.941 10.1522 104.453 10.1522C106.733 10.1522 107.861 11.2802 107.861 13.2242V13.6802H104.213C100.421 13.6802 99.1012 15.3602 99.1012 17.4002C99.1012 19.6082 100.925 21.1442 103.805 21.1442C105.797 21.1442 107.213 20.4722 107.981 19.3202V21.0002H110.165V13.3202C110.165 9.8402 108.197 8.1602 104.717 8.1602ZM104.189 19.3682C102.437 19.3682 101.381 18.5762 101.381 17.3042C101.381 16.2242 102.029 15.3362 104.309 15.3362H107.861V17.1122C107.285 18.5762 105.917 19.3682 104.189 19.3682Z" fill="white"></path> <path d="M114.314 21.0002H116.618V15.6722H123.866V21.0002H126.17V8.2802H123.866V13.6802H116.618V8.2802H114.314V21.0002Z" fill="white"></path> <path d="M140.13 8.2802H128.514V10.2962H133.17V21.0002H135.474V10.2962H140.13V8.2802Z" fill="white"></path> <path d="M142.486 21.0002H144.598L152.374 11.7362V21.0002H154.678V8.2802H152.59L144.79 17.5442V8.2802H142.486V21.0002Z" fill="white"></path> <path d="M164.694 21.1442C166.974 21.1442 168.87 20.1842 169.878 18.4082L168.126 17.3042C167.31 18.5522 166.062 19.1282 164.67 19.1282C162.174 19.1282 160.302 17.4002 160.302 14.6402C160.302 11.9282 162.174 10.1762 164.67 10.1762C166.062 10.1762 167.31 10.7522 168.126 12.0002L169.878 10.8722C168.87 9.0962 166.974 8.1602 164.694 8.1602C160.782 8.1602 157.974 10.8482 157.974 14.6402C157.974 18.4322 160.782 21.1442 164.694 21.1442Z" fill="white"></path> <path d="M67.7677 37.1278C67.422 37.1278 67.1083 37.0627 66.8266 36.9325C66.5449 36.8 66.3212 36.6094 66.1554 36.3608C65.9897 36.1098 65.9069 35.8068 65.9069 35.4517C65.9069 35.1392 65.9684 34.8859 66.0915 34.6918C66.2146 34.4953 66.3792 34.3414 66.5851 34.2301C66.7911 34.1188 67.0184 34.036 67.2669 33.9815C67.5179 33.9247 67.77 33.8797 68.0233 33.8466C68.3548 33.804 68.6235 33.772 68.8294 33.7507C69.0378 33.727 69.1893 33.688 69.284 33.6335C69.3811 33.5791 69.4296 33.4844 69.4296 33.3494V33.321C69.4296 32.9706 69.3337 32.6984 69.1419 32.5043C68.9526 32.3101 68.6649 32.2131 68.279 32.2131C67.8789 32.2131 67.5652 32.3007 67.338 32.4759C67.1107 32.651 66.9509 32.8381 66.8586 33.0369L66.0631 32.7528C66.2052 32.4214 66.3945 32.1634 66.6313 31.9787C66.8704 31.7917 67.1308 31.6615 67.4125 31.5881C67.6966 31.5123 67.976 31.4744 68.2506 31.4744C68.4258 31.4744 68.627 31.4957 68.8543 31.5384C69.0839 31.5786 69.3053 31.6626 69.5184 31.7905C69.7338 31.9183 69.9125 32.1113 70.0546 32.3693C70.1966 32.6274 70.2677 32.973 70.2677 33.4062V37H69.4296V36.2614H69.387C69.3302 36.3797 69.2355 36.5064 69.1029 36.6413C68.9703 36.7763 68.7939 36.8911 68.5738 36.9858C68.3536 37.0805 68.0849 37.1278 67.7677 37.1278ZM67.8955 36.375C68.2269 36.375 68.5063 36.3099 68.7336 36.1797C68.9632 36.0495 69.136 35.8814 69.252 35.6754C69.3704 35.4695 69.4296 35.2528 69.4296 35.0256V34.2585C69.3941 34.3011 69.316 34.3402 69.1952 34.3757C69.0768 34.4089 68.9395 34.4384 68.7833 34.4645C68.6294 34.4882 68.4791 34.5095 68.3323 34.5284C68.1879 34.545 68.0707 34.5592 67.9807 34.571C67.7629 34.5994 67.5593 34.6456 67.3699 34.7095C67.1829 34.7711 67.0314 34.8646 66.9154 34.9901C66.8017 35.1132 66.7449 35.2812 66.7449 35.4943C66.7449 35.7855 66.8526 36.0057 67.0681 36.1548C67.2859 36.3016 67.5617 36.375 67.8955 36.375Z" fill="white"></path> <path d="M74.1695 31.5455V32.2557H71.3428V31.5455H74.1695ZM72.1666 30.2386H73.0047V35.4375C73.0047 35.6742 73.039 35.8518 73.1077 35.9702C73.1787 36.0862 73.2687 36.1643 73.3776 36.2045C73.4888 36.2424 73.606 36.2614 73.7291 36.2614C73.8215 36.2614 73.8972 36.2566 73.9564 36.2472C74.0156 36.2353 74.0629 36.2259 74.0984 36.2188L74.2689 36.9716C74.2121 36.9929 74.1328 37.0142 74.031 37.0355C73.9292 37.0592 73.8001 37.071 73.6439 37.071C73.4072 37.071 73.1751 37.0201 72.9479 36.9183C72.723 36.8165 72.5359 36.6615 72.3868 36.4531C72.24 36.2448 72.1666 35.982 72.1666 35.6648V30.2386Z" fill="white"></path> <path d="M76.3854 29.7273V37H75.5473V29.7273H76.3854Z" fill="white"></path> <path d="M79.5255 37.1278C79.1798 37.1278 78.8661 37.0627 78.5844 36.9325C78.3027 36.8 78.079 36.6094 77.9133 36.3608C77.7475 36.1098 77.6647 35.8068 77.6647 35.4517C77.6647 35.1392 77.7262 34.8859 77.8493 34.6918C77.9724 34.4953 78.137 34.3414 78.3429 34.2301C78.5489 34.1188 78.7762 34.036 79.0248 33.9815C79.2757 33.9247 79.5278 33.8797 79.7811 33.8466C80.1126 33.804 80.3813 33.772 80.5873 33.7507C80.7956 33.727 80.9471 33.688 81.0418 33.6335C81.1389 33.5791 81.1874 33.4844 81.1874 33.3494V33.321C81.1874 32.9706 81.0915 32.6984 80.8998 32.5043C80.7104 32.3101 80.4227 32.2131 80.0368 32.2131C79.6367 32.2131 79.3231 32.3007 79.0958 32.4759C78.8685 32.651 78.7087 32.8381 78.6164 33.0369L77.8209 32.7528C77.963 32.4214 78.1524 32.1634 78.3891 31.9787C78.6282 31.7917 78.8886 31.6615 79.1704 31.5881C79.4544 31.5123 79.7338 31.4744 80.0084 31.4744C80.1836 31.4744 80.3848 31.4957 80.6121 31.5384C80.8418 31.5786 81.0631 31.6626 81.2762 31.7905C81.4916 31.9183 81.6704 32.1113 81.8124 32.3693C81.9544 32.6274 82.0255 32.973 82.0255 33.4062V37H81.1874V36.2614H81.1448C81.088 36.3797 80.9933 36.5064 80.8607 36.6413C80.7281 36.7763 80.5517 36.8911 80.3316 36.9858C80.1114 37.0805 79.8427 37.1278 79.5255 37.1278ZM79.6533 36.375C79.9847 36.375 80.2641 36.3099 80.4914 36.1797C80.721 36.0495 80.8938 35.8814 81.0098 35.6754C81.1282 35.4695 81.1874 35.2528 81.1874 35.0256V34.2585C81.1519 34.3011 81.0738 34.3402 80.953 34.3757C80.8347 34.4089 80.6973 34.4384 80.5411 34.4645C80.3872 34.4882 80.2369 34.5095 80.0901 34.5284C79.9457 34.545 79.8285 34.5592 79.7385 34.571C79.5207 34.5994 79.3171 34.6456 79.1277 34.7095C78.9407 34.7711 78.7892 34.8646 78.6732 34.9901C78.5596 35.1132 78.5027 35.2812 78.5027 35.4943C78.5027 35.7855 78.6105 36.0057 78.8259 36.1548C79.0437 36.3016 79.3195 36.375 79.6533 36.375Z" fill="white"></path> <path d="M84.3932 33.7188V37H83.5551V31.5455H84.3648V32.3977H84.4358C84.5636 32.1207 84.7578 31.8982 85.0182 31.7301C85.2786 31.5597 85.6148 31.4744 86.0267 31.4744C86.396 31.4744 86.7192 31.5502 86.9962 31.7017C87.2732 31.8509 87.4886 32.0781 87.6425 32.3835C87.7964 32.6866 87.8733 33.0701 87.8733 33.5341V37H87.0352V33.5909C87.0352 33.1624 86.924 32.8286 86.7014 32.5895C86.4789 32.348 86.1735 32.2273 85.7852 32.2273C85.5177 32.2273 85.2786 32.2853 85.0679 32.4013C84.8596 32.5173 84.695 32.6866 84.5743 32.9091C84.4536 33.1316 84.3932 33.4015 84.3932 33.7188Z" fill="white"></path> <path d="M91.7769 31.5455V32.2557H88.9502V31.5455H91.7769ZM89.774 30.2386H90.6121V35.4375C90.6121 35.6742 90.6464 35.8518 90.7151 35.9702C90.7861 36.0862 90.8761 36.1643 90.985 36.2045C91.0963 36.2424 91.2134 36.2614 91.3365 36.2614C91.4289 36.2614 91.5046 36.2566 91.5638 36.2472C91.623 36.2353 91.6704 36.2259 91.7059 36.2188L91.8763 36.9716C91.8195 36.9929 91.7402 37.0142 91.6384 37.0355C91.5366 37.0592 91.4076 37.071 91.2513 37.071C91.0146 37.071 90.7826 37.0201 90.5553 36.9183C90.3304 36.8165 90.1434 36.6615 89.9942 36.4531C89.8474 36.2448 89.774 35.982 89.774 35.6648V30.2386Z" fill="white"></path> <path d="M93.0375 37V31.5455H93.8756V37H93.0375ZM93.4637 30.6364C93.3003 30.6364 93.1595 30.5807 93.0411 30.4695C92.9251 30.3582 92.8671 30.2244 92.8671 30.0682C92.8671 29.9119 92.9251 29.7782 93.0411 29.6669C93.1595 29.5556 93.3003 29.5 93.4637 29.5C93.627 29.5 93.7667 29.5556 93.8827 29.6669C94.0011 29.7782 94.0603 29.9119 94.0603 30.0682C94.0603 30.2244 94.0011 30.3582 93.8827 30.4695C93.7667 30.5807 93.627 30.6364 93.4637 30.6364Z" fill="white"></path> <path d="M99.2742 32.767L98.5214 32.9801C98.474 32.8546 98.4042 32.7327 98.3119 32.6143C98.2219 32.4936 98.0988 32.3942 97.9426 32.3161C97.7863 32.2379 97.5863 32.1989 97.3424 32.1989C97.0086 32.1989 96.7304 32.2758 96.5079 32.4297C96.2877 32.5812 96.1776 32.7741 96.1776 33.0085C96.1776 33.2169 96.2534 33.3814 96.4049 33.5021C96.5564 33.6229 96.7932 33.7235 97.1151 33.804L97.9248 34.0028C98.4125 34.1212 98.7759 34.3023 99.015 34.5462C99.2541 34.7876 99.3737 35.099 99.3737 35.4801C99.3737 35.7926 99.2837 36.072 99.1038 36.3182C98.9262 36.5644 98.6776 36.7585 98.358 36.9006C98.0384 37.0426 97.6667 37.1136 97.243 37.1136C96.6866 37.1136 96.2262 36.9929 95.8616 36.7514C95.497 36.5099 95.2662 36.1572 95.1691 35.6932L95.9646 35.4943C96.0403 35.7879 96.1836 36.008 96.3943 36.1548C96.6073 36.3016 96.8855 36.375 97.2288 36.375C97.6194 36.375 97.9295 36.2921 98.1592 36.1264C98.3912 35.9583 98.5072 35.7571 98.5072 35.5227C98.5072 35.3333 98.4409 35.1747 98.3083 35.0469C98.1757 34.9167 97.9721 34.8196 97.6975 34.7557L96.7884 34.5426C96.2889 34.4242 95.922 34.2408 95.6876 33.9922C95.4556 33.7412 95.3396 33.4276 95.3396 33.0511C95.3396 32.7434 95.426 32.4711 95.5988 32.2344C95.774 31.9976 96.0119 31.8118 96.3126 31.6768C96.6156 31.5419 96.9589 31.4744 97.3424 31.4744C97.8822 31.4744 98.3059 31.5928 98.6137 31.8295C98.9238 32.0663 99.144 32.3788 99.2742 32.767Z" fill="white"></path> <path d="M103.76 33.4915V34.2727H100.578V33.4915H103.76Z" fill="white"></path> <path d="M107.451 37.1136C106.939 37.1136 106.499 36.9929 106.13 36.7514C105.76 36.5099 105.476 36.1773 105.277 35.7536C105.079 35.3298 104.979 34.8456 104.979 34.3011C104.979 33.7472 105.081 33.2583 105.285 32.8345C105.49 32.4084 105.777 32.0758 106.144 31.8366C106.513 31.5952 106.944 31.4744 107.437 31.4744C107.82 31.4744 108.166 31.5455 108.473 31.6875C108.781 31.8295 109.033 32.0284 109.23 32.2841C109.426 32.5398 109.548 32.8381 109.596 33.179H108.758C108.694 32.9304 108.552 32.7102 108.331 32.5185C108.114 32.3243 107.82 32.2273 107.451 32.2273C107.124 32.2273 106.838 32.3125 106.591 32.483C106.347 32.651 106.157 32.889 106.02 33.1967C105.885 33.5021 105.817 33.8608 105.817 34.2727C105.817 34.6941 105.883 35.0611 106.016 35.3736C106.151 35.6861 106.34 35.9287 106.584 36.1016C106.83 36.2744 107.119 36.3608 107.451 36.3608C107.669 36.3608 107.866 36.3229 108.044 36.2472C108.221 36.1714 108.372 36.0625 108.495 35.9205C108.618 35.7784 108.705 35.608 108.758 35.4091H109.596C109.548 35.7311 109.431 36.0211 109.244 36.2791C109.059 36.5348 108.814 36.7384 108.509 36.8899C108.206 37.0391 107.853 37.1136 107.451 37.1136Z" fill="white"></path> <path d="M113.037 37.1136C112.544 37.1136 112.112 36.9964 111.74 36.7621C111.371 36.5277 111.082 36.1998 110.874 35.7784C110.668 35.357 110.565 34.8646 110.565 34.3011C110.565 33.733 110.668 33.237 110.874 32.8132C111.082 32.3894 111.371 32.0604 111.74 31.826C112.112 31.5916 112.544 31.4744 113.037 31.4744C113.529 31.4744 113.96 31.5916 114.329 31.826C114.701 32.0604 114.99 32.3894 115.196 32.8132C115.404 33.237 115.508 33.733 115.508 34.3011C115.508 34.8646 115.404 35.357 115.196 35.7784C114.99 36.1998 114.701 36.5277 114.329 36.7621C113.96 36.9964 113.529 37.1136 113.037 37.1136ZM113.037 36.3608C113.411 36.3608 113.718 36.2649 113.96 36.0732C114.201 35.8814 114.38 35.6293 114.496 35.3168C114.612 35.0043 114.67 34.6657 114.67 34.3011C114.67 33.9366 114.612 33.5968 114.496 33.282C114.38 32.9671 114.201 32.7126 113.96 32.5185C113.718 32.3243 113.411 32.2273 113.037 32.2273C112.663 32.2273 112.355 32.3243 112.113 32.5185C111.872 32.7126 111.693 32.9671 111.577 33.282C111.461 33.5968 111.403 33.9366 111.403 34.3011C111.403 34.6657 111.461 35.0043 111.577 35.3168C111.693 35.6293 111.872 35.8814 112.113 36.0732C112.355 36.2649 112.663 36.3608 113.037 36.3608Z" fill="white"></path> <path d="M116.788 37V31.5455H117.597V32.3977H117.668C117.782 32.1065 117.965 31.8804 118.219 31.7195C118.472 31.5561 118.776 31.4744 119.131 31.4744C119.491 31.4744 119.791 31.5561 120.03 31.7195C120.271 31.8804 120.459 32.1065 120.594 32.3977H120.651C120.791 32.116 121 31.8923 121.28 31.7266C121.559 31.5585 121.894 31.4744 122.285 31.4744C122.772 31.4744 123.171 31.6271 123.481 31.9325C123.792 32.2356 123.947 32.7079 123.947 33.3494V37H123.109V33.3494C123.109 32.947 122.998 32.6593 122.778 32.4865C122.558 32.3137 122.299 32.2273 122.001 32.2273C121.617 32.2273 121.32 32.3433 121.109 32.5753C120.899 32.8049 120.793 33.0961 120.793 33.4489V37H119.941V33.2642C119.941 32.9541 119.84 32.7043 119.639 32.5149C119.438 32.3232 119.179 32.2273 118.861 32.2273C118.644 32.2273 118.44 32.2853 118.251 32.4013C118.064 32.5173 117.912 32.6783 117.796 32.8842C117.682 33.0878 117.626 33.3234 117.626 33.5909V37H116.788Z" fill="white"></path> <path d="M125.479 39.0455V31.5455H126.289V32.4119H126.388C126.45 32.3172 126.535 32.1965 126.644 32.0497C126.755 31.9006 126.914 31.768 127.12 31.652C127.328 31.5336 127.61 31.4744 127.965 31.4744C128.424 31.4744 128.829 31.5893 129.179 31.8189C129.53 32.0485 129.803 32.3741 130 32.7955C130.196 33.2169 130.294 33.714 130.294 34.2869C130.294 34.8646 130.196 35.3653 130 35.7891C129.803 36.2105 129.531 36.5372 129.183 36.7692C128.835 36.9988 128.433 37.1136 127.979 37.1136C127.629 37.1136 127.348 37.0556 127.137 36.9396C126.927 36.8213 126.764 36.6875 126.651 36.5384C126.537 36.3868 126.45 36.2614 126.388 36.1619H126.317V39.0455H125.479ZM126.303 34.2727C126.303 34.6847 126.363 35.0481 126.484 35.3629C126.605 35.6754 126.781 35.9205 127.013 36.098C127.245 36.2732 127.529 36.3608 127.865 36.3608C128.216 36.3608 128.508 36.2685 128.742 36.0838C128.979 35.8968 129.157 35.6458 129.275 35.331C129.396 35.0137 129.456 34.661 129.456 34.2727C129.456 33.8892 129.397 33.5436 129.279 33.2358C129.163 32.9257 128.986 32.6806 128.75 32.5007C128.515 32.3184 128.22 32.2273 127.865 32.2273C127.524 32.2273 127.238 32.3137 127.006 32.4865C126.774 32.657 126.599 32.8961 126.48 33.2038C126.362 33.5092 126.303 33.8655 126.303 34.2727Z" fill="white"></path> <path d="M133.178 37.1278C132.832 37.1278 132.518 37.0627 132.237 36.9325C131.955 36.8 131.731 36.6094 131.566 36.3608C131.4 36.1098 131.317 35.8068 131.317 35.4517C131.317 35.1392 131.379 34.8859 131.502 34.6918C131.625 34.4953 131.789 34.3414 131.995 34.2301C132.201 34.1188 132.429 34.036 132.677 33.9815C132.928 33.9247 133.18 33.8797 133.433 33.8466C133.765 33.804 134.034 33.772 134.24 33.7507C134.448 33.727 134.599 33.688 134.694 33.6335C134.791 33.5791 134.84 33.4844 134.84 33.3494V33.321C134.84 32.9706 134.744 32.6984 134.552 32.5043C134.363 32.3101 134.075 32.2131 133.689 32.2131C133.289 32.2131 132.975 32.3007 132.748 32.4759C132.521 32.651 132.361 32.8381 132.269 33.0369L131.473 32.7528C131.615 32.4214 131.805 32.1634 132.041 31.9787C132.281 31.7917 132.541 31.6615 132.823 31.5881C133.107 31.5123 133.386 31.4744 133.661 31.4744C133.836 31.4744 134.037 31.4957 134.264 31.5384C134.494 31.5786 134.715 31.6626 134.929 31.7905C135.144 31.9183 135.323 32.1113 135.465 32.3693C135.607 32.6274 135.678 32.973 135.678 33.4062V37H134.84V36.2614H134.797C134.74 36.3797 134.646 36.5064 134.513 36.6413C134.38 36.7763 134.204 36.8911 133.984 36.9858C133.764 37.0805 133.495 37.1278 133.178 37.1278ZM133.306 36.375C133.637 36.375 133.916 36.3099 134.144 36.1797C134.373 36.0495 134.546 35.8814 134.662 35.6754C134.781 35.4695 134.84 35.2528 134.84 35.0256V34.2585C134.804 34.3011 134.726 34.3402 134.605 34.3757C134.487 34.4089 134.35 34.4384 134.193 34.4645C134.04 34.4882 133.889 34.5095 133.742 34.5284C133.598 34.545 133.481 34.5592 133.391 34.571C133.173 34.5994 132.969 34.6456 132.78 34.7095C132.593 34.7711 132.442 34.8646 132.326 34.9901C132.212 35.1132 132.155 35.2812 132.155 35.4943C132.155 35.7855 132.263 36.0057 132.478 36.1548C132.696 36.3016 132.972 36.375 133.306 36.375Z" fill="white"></path> <path d="M138.046 33.7188V37H137.207V31.5455H138.017V32.3977H138.088C138.216 32.1207 138.41 31.8982 138.671 31.7301C138.931 31.5597 139.267 31.4744 139.679 31.4744C140.048 31.4744 140.372 31.5502 140.649 31.7017C140.926 31.8509 141.141 32.0781 141.295 32.3835C141.449 32.6866 141.526 33.0701 141.526 33.5341V37H140.688V33.5909C140.688 33.1624 140.576 32.8286 140.354 32.5895C140.131 32.348 139.826 32.2273 139.438 32.2273C139.17 32.2273 138.931 32.2853 138.72 32.4013C138.512 32.5173 138.347 32.6866 138.227 32.9091C138.106 33.1316 138.046 33.4015 138.046 33.7188Z" fill="white"></path> <path d="M143.402 39.0455C143.259 39.0455 143.133 39.0336 143.022 39.0099C142.91 38.9886 142.833 38.9673 142.791 38.946L143.004 38.2074C143.207 38.2595 143.387 38.2784 143.544 38.2642C143.7 38.25 143.838 38.1802 143.959 38.0547C144.082 37.9316 144.195 37.7315 144.296 37.4545L144.453 37.0284L142.436 31.5455H143.345L144.85 35.892H144.907L146.413 31.5455H147.322L145.007 37.7955C144.902 38.0772 144.773 38.3104 144.62 38.495C144.466 38.6821 144.287 38.8205 144.083 38.9105C143.882 39.0005 143.655 39.0455 143.402 39.0455Z" fill="white"></path> <path d="M148.697 37.0568C148.522 37.0568 148.372 36.9941 148.246 36.8686C148.121 36.7431 148.058 36.5928 148.058 36.4176C148.058 36.2424 148.121 36.0921 148.246 35.9666C148.372 35.8411 148.522 35.7784 148.697 35.7784C148.872 35.7784 149.023 35.8411 149.148 35.9666C149.274 36.0921 149.336 36.2424 149.336 36.4176C149.336 36.5336 149.307 36.6402 149.248 36.7372C149.191 36.8343 149.114 36.9124 149.017 36.9716C148.922 37.0284 148.816 37.0568 148.697 37.0568Z" fill="white"></path> <path d="M150.84 37V31.5455H151.65V32.3693H151.707C151.806 32.0994 151.986 31.8804 152.247 31.7124C152.507 31.5443 152.801 31.4602 153.127 31.4602C153.189 31.4602 153.266 31.4614 153.358 31.4638C153.45 31.4661 153.52 31.4697 153.568 31.4744V32.3267C153.539 32.3196 153.474 32.3089 153.372 32.2947C153.273 32.2782 153.167 32.2699 153.056 32.2699C152.791 32.2699 152.554 32.3255 152.346 32.4368C152.14 32.5457 151.977 32.6972 151.856 32.8913C151.738 33.0831 151.678 33.3021 151.678 33.5483V37H150.84Z" fill="white"></path> <path d="M157.998 34.7699V31.5455H158.837V37H157.998V36.0767H157.942C157.814 36.3537 157.615 36.5893 157.345 36.7834C157.075 36.9751 156.734 37.071 156.322 37.071C155.981 37.071 155.678 36.9964 155.413 36.8473C155.148 36.6958 154.94 36.4685 154.788 36.1655C154.637 35.8601 154.561 35.4754 154.561 35.0114V31.5455H155.399V34.9545C155.399 35.3523 155.51 35.6695 155.733 35.9062C155.958 36.143 156.244 36.2614 156.592 36.2614C156.801 36.2614 157.012 36.2081 157.228 36.1016C157.446 35.995 157.628 35.8317 157.775 35.6115C157.924 35.3913 157.998 35.1108 157.998 34.7699Z" fill="white"></path> <path fill-rule="evenodd" clip-rule="evenodd" d="M22.5914 1.81162C21.2801 2.79572 20.0597 3.88756 19.8794 4.23776C19.6282 4.72625 19.7483 6.22377 20.395 10.6617C20.8587 13.8446 21.2023 16.6492 21.1582 16.894C21.0614 17.432 19.5525 13.5945 18.2413 9.47493L17.2858 6.47425L16.1129 7.60347C14.2989 9.3494 11.4978 12.8982 9.48236 16.0037C7.0327 19.7783 5.35697 22.8295 5.73336 22.8295C5.90233 22.8295 8.81034 22.3579 12.1955 21.7813C15.5809 21.2049 18.4025 20.785 18.466 20.8479C18.5294 20.9111 17.338 21.3969 15.8181 21.9276C14.2983 22.4582 10.8559 23.8462 8.16783 25.0125C3.357 27.0998 3.27207 27.1526 2.70762 28.4109C1.78527 30.4677 0.775007 34.8923 0.424544 38.41C-0.0126422 42.7957 -0.127377 45.9777 0.151563 45.9777C0.277623 45.9777 1.03696 45.5753 1.83981 45.0836C4.17087 43.6552 8.64077 41.6686 12.0605 40.5408C21.1487 37.5443 31.1647 36.7774 43.3034 38.1494L44.9425 38.3346L43.2715 36.5917C39.0812 32.2208 35.4141 27.3226 33.5772 23.6432C33.044 22.576 32.5001 21.8899 32.1279 21.8157C31.8001 21.7504 30.1908 21.4305 28.5516 21.1046C26.9126 20.7791 25.1692 20.347 24.6775 20.1443C23.7906 19.7786 23.8016 19.7715 26.0185 19.2373C27.2478 18.9411 28.8234 18.6936 29.5202 18.6868C30.946 18.6732 30.9514 18.6654 30.3506 17.508C28.8657 14.6489 26.27 6.13771 25.6821 2.2001C25.4994 0.977981 25.2657 -0.0120568 25.1626 0.000110969C25.0598 0.0122787 23.9026 0.827219 22.5914 1.81162Z" fill="url(#paint0_radial_110_130)"></path> <defs> <radialGradient id="paint0_radial_110_130" cx="0" cy="0" r="1" gradientUnits="userSpaceOnUse" gradientTransform="translate(41 36.5) rotate(-147.758) scale(38.4253 37.5601)"> <stop stop-color="#1AC4E6"></stop> <stop offset="0.487446" stop-color="#0B8ABB"></stop> <stop offset="1" stop-color="#00609C"></stop> </radialGradient> </defs> </svg> 