<svg xmlns="http://www.w3.org/2000/svg" width="30" height="31" viewBox="0 0 30 31" fill="none">
  <path fill-rule="evenodd" clip-rule="evenodd" d="M15.0802 1.22146C14.2049 1.88499 13.3903 2.62115 13.2699 2.85726C13.1022 3.18662 13.1824 4.19631 13.6141 7.18856C13.9236 9.3346 14.153 11.2255 14.1235 11.3906C14.0589 11.7534 13.0517 9.16591 12.1764 6.38837L11.5386 4.36519L10.7557 5.12656C9.54477 6.30373 7.67503 8.69649 6.32967 10.7903C4.69446 13.3353 3.57588 15.3925 3.82713 15.3925C3.93992 15.3925 5.88108 15.0746 8.14072 14.6858C10.4006 14.2972 12.284 14.0141 12.3264 14.0565C12.3688 14.0991 11.5735 14.4267 10.5589 14.7844C9.54437 15.1422 7.24653 16.0781 5.45219 16.8644C2.24086 18.2717 2.18417 18.3073 1.80739 19.1557C1.1917 20.5425 0.517333 23.5258 0.283391 25.8975C-0.00843891 28.8546 -0.0850268 31 0.101171 31C0.185319 31 0.692192 30.7287 1.22811 30.3971C2.78414 29.434 5.76789 28.0946 8.05061 27.3342C14.1172 25.3138 20.8031 24.7968 28.9059 25.7218L30 25.8467L28.8846 24.6715C26.0874 21.7245 23.6396 18.422 22.4134 15.9412C22.0575 15.2216 21.6945 14.759 21.446 14.709C21.2272 14.665 20.153 14.4493 19.0588 14.2296C17.9647 14.0101 16.8009 13.7187 16.4727 13.5821C15.8807 13.3355 15.888 13.3307 17.3679 12.9706C18.1885 12.7709 19.2402 12.604 19.7053 12.5994C20.6571 12.5902 20.6606 12.585 20.2596 11.8046C19.2685 9.87686 17.5358 4.13828 17.1433 1.48339C17.0213 0.659393 16.8654 -0.00812915 16.7966 7.48197e-05C16.7279 0.00827879 15.9555 0.557744 15.0802 1.22146Z" fill="white"></path>
</svg>